<?xml version="1.0" encoding="UTF-8" standalone="no"?>
<!DOCTYPE svg PUBLIC "-//W3C//DTD SVG 1.1//EN" "http://www.w3.org/Graphics/SVG/1.1/DTD/svg11.dtd">
<svg width="100%" height="100%" viewBox="0 0 4167 4167" version="1.1" xmlns="http://www.w3.org/2000/svg" xmlns:xlink="http://www.w3.org/1999/xlink" xml:space="preserve" xmlns:serif="http://www.serif.com/" style="fill-rule:evenodd;clip-rule:evenodd;stroke-linejoin:round;stroke-miterlimit:2;">
    <g id="Background">
        <path id="White" d="M4166.667,1041.667L4166.667,3125C4166.667,3699.911 3699.911,4166.667 3125,4166.667L1041.667,4166.667C466.755,4166.667 0,3699.911 0,3125L0,1041.667C0,466.755 466.755,0 1041.667,0L3125,0C3699.911,0 4166.667,466.755 4166.667,1041.667Z" style="fill:white;"/>
    </g>
    <g transform="matrix(13.541812,0,0,13.541812,481.947004,-1279.245575)">
        <path d="M72.601,348.721C69.292,352.121 64.666,354.233 59.547,354.233C49.488,354.233 41.333,346.079 41.333,336.019C41.333,325.959 49.488,317.805 59.547,317.805C62.652,317.805 65.576,318.582 68.134,319.952L93.948,295.151C92.89,292.843 92.301,290.276 92.301,287.572C92.301,277.512 100.456,269.358 110.516,269.358C110.966,269.358 111.412,269.374 111.854,269.406L118.09,255.064C114.219,251.808 111.723,246.97 111.598,241.547C100.745,237.982 90.464,234.521 82.015,230.144C72.608,225.271 65.331,219.283 61.306,211.231C52.288,210.14 45.301,202.461 45.301,193.149C45.301,183.819 52.315,176.129 61.358,175.062C64.655,166.115 70.161,158.217 77.539,151.827C77.153,150.351 76.947,148.802 76.947,147.205C76.947,137.145 85.102,128.991 95.162,128.991C101.206,128.991 106.563,131.935 109.876,136.468C115.907,135.223 122.367,134.565 129.201,134.565C140.837,134.565 150.776,136.019 158.982,138.191C162.311,134.56 167.095,132.283 172.41,132.283C182.469,132.283 190.624,140.437 190.624,150.497C190.624,160.556 182.469,168.711 172.41,168.711C169.534,168.711 166.814,168.045 164.396,166.858L147.622,183.222C148.657,185.509 149.233,188.048 149.233,190.721C149.233,198.624 144.199,205.352 137.162,207.873L136.84,224.311C143.408,227.062 148.022,233.551 148.022,241.119C148.022,241.434 148.014,241.748 147.998,242.059C174.976,253.307 188.001,263.201 188.001,290.866C188.001,293.787 187.819,296.679 187.455,299.526C192.126,302.823 195.177,308.263 195.177,314.416C195.177,324.476 187.022,332.63 176.963,332.63C175.497,332.63 174.072,332.457 172.706,332.13C162.97,342.887 148.512,350.775 129.122,353.758C127.175,361.721 119.992,367.63 111.429,367.63C102.853,367.63 95.662,361.705 93.727,353.724C86.26,352.614 79.018,350.872 72.601,348.721ZM154.231,149.355C147.247,147.661 138.89,146.565 129.201,146.565C123.619,146.565 118.322,147.074 113.357,148.044C113.217,151.132 112.309,154.019 110.818,156.519L125.043,173.51C126.915,172.86 128.926,172.507 131.019,172.507C134.023,172.507 136.857,173.234 139.355,174.522L155.959,158.324C154.829,155.953 154.196,153.299 154.196,150.497C154.196,150.114 154.208,149.733 154.231,149.355ZM127.953,341.742C142.906,339.237 154.354,333.32 162.318,325.248C160.075,322.221 158.748,318.474 158.748,314.416C158.748,314.208 158.752,314 158.759,313.794L124.159,299.639C122.175,301.881 119.647,303.63 116.781,304.679L117.232,332.146C121.983,333.742 125.859,337.243 127.953,341.742ZM84.438,161.93C79.542,166.423 75.751,171.762 73.254,177.754C76.595,179.872 79.199,183.047 80.596,186.809L113.608,185.352C114.089,183.79 114.775,182.317 115.634,180.965L101.63,164.238C99.62,165.001 97.44,165.419 95.162,165.419C91.153,165.419 87.446,164.124 84.438,161.93ZM73.604,208.317C76.754,212.931 81.658,216.445 87.535,219.489C95.47,223.6 105.09,226.838 115.261,230.155C117.624,227.024 120.976,224.68 124.851,223.587L125.158,207.971C120.069,206.243 115.992,202.327 114.046,197.345L80.833,198.81C79.551,202.734 76.973,206.072 73.604,208.317ZM102.256,303.81L76.266,328.781C77.228,330.999 77.761,333.447 77.761,336.019C77.761,336.634 77.73,337.243 77.671,337.843C82.933,339.529 88.81,340.893 94.876,341.805C96.904,337.401 100.639,333.945 105.232,332.283L104.783,304.865C103.909,304.576 103.065,304.222 102.256,303.81ZM129.322,259.326L122.863,274.181C126.471,277.509 128.73,282.276 128.73,287.572C128.73,287.894 128.722,288.215 128.705,288.534L163.098,302.603C166.191,298.977 170.682,296.579 175.737,296.243C175.913,294.472 176.001,292.678 176.001,290.866C176.001,281.995 174.362,275.516 170.759,270.415C167.06,265.178 161.425,261.435 154.056,257.808C150.849,256.229 147.332,254.692 143.507,253.122C140.169,256.929 135.269,259.332 129.808,259.332C129.645,259.332 129.483,259.33 129.322,259.326Z"/>
    </g>
    <g id="dev-indicator" serif:id="dev indicator" transform="matrix(1,0,0,1,2341.637698,2911.355736)">
        <g id="Dev-Indicator" serif:id="Dev Indicator" transform="matrix(3.315882,0,0,3.440767,-1725.581215,-2568.168002)">
            <path d="M958.864,828.505L958.864,907.3C958.864,929.044 940.546,946.698 917.983,946.698L604.612,946.698C582.049,946.698 563.731,929.044 563.731,907.3L563.731,828.505C563.731,806.761 582.049,789.108 604.612,789.108L917.983,789.108C940.546,789.108 958.864,806.761 958.864,828.505Z" style="fill:rgb(255,26,26);"/>
        </g>
        <g transform="matrix(1,0,0,1,-377.109952,-588.403353)">
            <g transform="matrix(533.333333,0,0,533.333333,1573.592889,1173.884403)">
            </g>
            <text x="789.739px" y="1173.884px" style="font-family:'Calibri', sans-serif;font-size:533.333px;">de<tspan x="1332.707px " y="1173.884px ">v</tspan></text>
        </g>
    </g>
</svg>
