<svg xmlns="http://www.w3.org/2000/svg" viewBox="0 0 132.2406 218.63793"><defs><style>.cls-1,.cls-2{fill:none;stroke-miterlimit:10;}.cls-1{stroke:#c6c6c6;stroke-width:3px;}.cls-2{stroke:#000;stroke-width:5px;}.cls-3{fill:#ccc;}</style></defs><title>subconscious logo 2</title><g id="Edges_copy" data-name="Edges copy"><line class="cls-1" x1="78.23913" y1="103.50439" x2="58.23913" y2="149.50439"/><line class="cls-1" x1="11.23913" y1="55.50439" x2="79.23913" y2="52.50439"/><line class="cls-1" x1="58.23913" y1="149.50439" x2="7.23913" y2="198.50439"/><line class="cls-1" x1="58.23913" y1="149.50439" x2="59.23913" y2="210.50439"/><line class="cls-1" x1="79.23913" y1="52.50439" x2="43.23913" y2="9.50439"/><line class="cls-1" x1="79.23913" y1="52.50439" x2="120.23913" y2="12.50439"/><line class="cls-1" x1="124.23913" y1="176.50439" x2="58.23913" y2="149.50439"/><line class="cls-1" x1="78.23913" y1="103.50439" x2="79.23913" y2="52.50439"/></g><g id="Text"><path class="cls-2" d="M234.5,262.5c34.2002,13.2002,51.50146,19.59668,51.50146,49.29688,0,31.20019-23.10009,58.20068-70.80078,58.20068-19.5,0-40.80029-5.7002-51.60058-12.8999M234.5,262.5c-33.00049-11.7002-66.69971-17.60352-66.69971-46.104,0-31.50049,26.1001-54.90039,65.40039-54.90039,20.7002,0,35.70069,4.7998,44.70069,9.8999" transform="translate(-156.26087 -158.99561)"/></g><g id="Nodes_copy" data-name="Nodes copy"><circle cx="120.14907" cy="12.43297" r="7.28571"/><circle cx="42.90062" cy="9.14104" r="7.28571"/><circle cx="124.70186" cy="176.35222" r="7.28571"/><circle cx="7.28571" cy="197.95471" r="7.28571"/><circle cx="59.1677" cy="211.35222" r="7.28571"/><circle cx="11.25466" cy="55.08514" r="7.28571"/><circle class="cls-3" cx="58.25466" cy="149.5075" r="7.28571"/><circle cx="77.54658" cy="103.05408" r="7.28571"/><circle class="cls-3" cx="78.75776" cy="52.65657" r="7.28571"/></g></svg>